<?xml version="1.0" encoding="UTF-8"?>
<svg xmlns="http://www.w3.org/2000/svg" viewBox="0 0 375 532">
  <defs>
    <style>
      .cls-1 {
        stroke-width: 5px;
      }

      .cls-1, .cls-2 {
        fill: #67a3ab;
      }

      .cls-1, .cls-3 {
        stroke: #b3d1d5;
        stroke-miterlimit: 10;
      }

      .cls-4 {
        fill: #e6f0f1;
      }

      .cls-5 {
        fill: #b3d1d5;
      }

      .cls-3 {
        fill: none;
        stroke-width: 4px;
      }

      .cls-6 {
        fill: #015a66;
        opacity: .28;
      }
    </style>
  </defs>
  <g id="background">
    <rect class="cls-5" x="-.5" width="376.15" height="531.17"/>
  </g>
  <g id="Layer_2" data-name="Layer 2">
    <path class="cls-2" d="M375.5,532.07H-1.5v-88.44c0-31.58,377-31.58,377,0v88.44Z"/>
    <g>
      <path class="cls-1" d="M41.36,436.38c-10.42-7.11-71.07-185.73,63.01-254.43,7.11-3.32,29.38-6.16,29.38-6.16,0,0,6.63,2.37,1.42,7.11-1.9,1.9-128.25,91.64-58.28,251.59,3.32,7.58-25.11,9-35.53,1.9Z"/>
      <path class="cls-2" d="M35.8,148.85s44.74-44.18,81.09,1.68c.56,.56,12.3-37.47-21.25-46.41-2.24-1.12-6.71-1.12-1.68-3.91,1.12-.56,36.96-15.15,51.45,23.49,3.36,8.95,5.03,25.16-7.27,44.18-.56,.56-2.24,2.24,2.24,1.12,1.12-.56,32.43-6.15,55.36,23.49,1.68,3.36,12.86,20.13,2.24,57.6-.56,2.24-3.36,11.74-6.15,0-.56-1.12-1.68-26.84-19.01-46.41-2.8-3.91-20.13-17.34-34.11-16.78-1.12-.56,52.01,57.04-2.24,100.66-1.12,.56-12.86,11.74-8.95,0,.56-1.12,13.42-73.82-8.95-88.91-1.68-2.24-16.22-17.89-16.22-17.89,0,0-10.44-27.41-34.67-30.76-16.22-2.24-27.4-.56-27.4-.56,0,0-7.83,2.24-4.47-.56Z"/>
      <path class="cls-3" d="M86.85,192.38s-6,23.98,12.32,26.06"/>
      <path class="cls-3" d="M63.16,212.28s-2.45,27.56,17.06,35.53"/>
      <path class="cls-3" d="M40.41,242.6s3.87,32.46,28.71,28.31"/>
      <path class="cls-3" d="M26.2,277.19s5.16,35.94,32.69,28.9"/>
      <path class="cls-3" d="M19.09,317.93s6.36,24.61,36.82,20.36"/>
      <path class="cls-3" d="M20.04,358.21c.49,.81,13.42,23.89,37.98,13.13"/>
      <path class="cls-3" d="M26.67,397.53s13.74,16.37,39.09,5.82"/>
    </g>
    <circle class="cls-4" cx="247.35" cy="78.2" r="37.91"/>
  </g>
  <g id="Color_Screen" data-name="Color Screen">
    <rect class="cls-6" x="-.5" width="376" height="532"/>
  </g>
</svg>