<?xml version="1.0" encoding="UTF-8"?>
<svg xmlns="http://www.w3.org/2000/svg" viewBox="0 0 375 532">
  <defs>
    <style>
      .cls-1 {
        stroke-width: 5px;
      }

      .cls-1, .cls-2 {
        fill: #67a3ab;
      }

      .cls-1, .cls-3 {
        stroke: #b3d1d5;
        stroke-miterlimit: 10;
      }

      .cls-4 {
        fill: #e6f0f1;
      }

      .cls-5 {
        fill: #80b3b9;
      }

      .cls-6 {
        fill: #b3d1d5;
      }

      .cls-7 {
        fill: #4d949d;
      }

      .cls-3 {
        fill: none;
        stroke-width: 4px;
      }

      .cls-8 {
        fill: #e2f552;
        opacity: .3;
      }

      .cls-9 {
        fill: #015a66;
        opacity: .28;
      }
    </style>
  </defs>
  <g id="background">
    <rect class="cls-6" x="-.5" width="376.15" height="531.17"/>
  </g>
  <g id="Layer_2" data-name="Layer 2">
    <path class="cls-2" d="M375.5,532.07H-1.5v-88.44c0-31.58,377-31.58,377,0v88.44Z"/>
    <circle class="cls-4" cx="247.35" cy="78.2" r="37.91"/>
    <g>
      <path class="cls-7" d="M107.1,110.47c0,18.13,14.7,32.83,32.83,32.83,4.16,0,8.14-.78,11.81-2.2,3.63,3.9,8.81,6.33,14.55,6.33,6.22,0,11.78-2.86,15.43-7.33,4.38,12.98,16.64,22.32,31.1,22.32,11.61,0,21.81-6.03,27.64-15.13,5.69,6.08,13.66,9.87,22.5,9.87,6.17,0,11.92-1.85,16.77-5.04,5.5,9.22,15.38,15.38,26.65,15.38,17.27,0,31.28-14.44,31.28-32.26,0-4.17-.77-8.14-2.17-11.8,2.47,.81,5.11,1.25,7.85,1.25,13.99,0,25.33-11.34,25.33-25.33,0-13.99-11.34-25.33-25.33-25.33-.1,0-.2,0-.3,0-.81-17.41-15.18-31.28-32.79-31.28-4.44,0-8.67,.89-12.53,2.48-1.37-16.87-15.48-30.14-32.71-30.14-14.82,0-27.34,9.82-31.42,23.3-3.39-1.68-7.2-2.63-11.23-2.63-13.99,0-25.33,11.34-25.33,25.33,0,1.76,.18,3.48,.52,5.14-6.1,1.37-11.14,5.55-13.7,11.1-1.51-9.5-9.73-16.76-19.65-16.76-10.14,0-18.5,7.58-19.74,17.38-1.49-.21-3.01-.32-4.56-.32-18.13,0-32.83,14.7-32.83,32.83Zm114.27-20.42c0,.23,.02,.46,.04,.69-.07,0-.14,.02-.21,.03,.06-.24,.12-.48,.17-.72Z"/>
      <path class="cls-5" d="M264.63,27.72c15.98,0,29.19,12.19,31.4,28.04,.63-2.57,.97-5.26,.97-8.03,0-18.08-14.2-32.73-31.73-32.73s-31.73,14.65-31.73,32.73c0,1.59,.12,3.16,.33,4.69,3.47-14.19,15.93-24.7,30.76-24.7Z"/>
      <path class="cls-5" d="M299.57,44.42c-9.77,3.4-16.77,11.25-19.64,20.63,3.64-5.28,8.88-9.47,15.33-11.72,16.55-5.76,34.78,3.4,40.73,20.47,2.43,6.99,2.43,14.22,.44,20.72,5.7-8.27,7.49-19.21,3.87-29.63-5.95-17.07-24.18-26.24-40.73-20.47Z"/>
      <path class="cls-5" d="M326.19,95.16c5.77-11.62,19.86-16.38,31.46-10.61,4.75,2.36,8.34,6.12,10.54,10.53-1.14-7.27-5.65-13.88-12.72-17.4-11.6-5.76-25.69-1.01-31.46,10.61-3.41,6.87-3.16,14.59,.01,20.95-.73-4.64-.08-9.55,2.17-14.08Z"/>
      <path class="cls-5" d="M121.42,91.98c14.64-8.93,33.73-4.33,42.64,10.28,3.65,5.98,5.02,12.71,4.37,19.19,3.84-8.92,3.46-19.5-1.98-28.41-8.91-14.61-28-19.21-42.64-10.28-8.64,5.27-13.8,14.09-14.74,23.43,2.46-5.7,6.64-10.73,12.34-14.21Z"/>
      <path class="cls-5" d="M230.39,62.41c10.93-6.67,25.18-3.23,31.83,7.67,2.72,4.46,3.75,9.49,3.26,14.32,2.87-6.66,2.58-14.55-1.48-21.21-6.65-10.91-20.91-14.34-31.83-7.67-6.45,3.94-10.3,10.52-11,17.49,1.83-4.26,4.95-8.01,9.21-10.61Z"/>
      <path class="cls-5" d="M264.45,81.7c7.98-4.87,18.39-2.36,23.25,5.61,1.86,3.05,2.64,6.46,2.44,9.78,2.7-5.1,2.72-11.44-.5-16.72-4.86-7.97-15.27-10.48-23.25-5.61-4.93,3.01-7.77,8.12-8.09,13.47,1.38-2.6,3.45-4.88,6.15-6.53Z"/>
      <path class="cls-7" d="M322.73,162.86c-14.41,8.79-33.19,4.26-41.97-10.12-.2-.33-.4-.67-.59-1.01-1.07,.9-2.22,1.74-3.45,2.49-12.12,7.4-27.72,4.2-35.99-6.98-2.61,4.43-6.32,8.3-11.02,11.16-15.28,9.33-35.21,4.52-44.52-10.73-1.54-2.53-2.69-5.18-3.47-7.9-.75,1.01-1.62,1.96-2.59,2.83-7.86,7.01-19.9,6.34-26.9-1.5-.01-.01-.03-.03-.04-.04-10.11,4.45-22.28,3.24-31.44-4.17-6.02-4.87-9.69-11.58-10.85-18.68,1.88,4.47,4.85,8.54,8.87,11.8,8.66,7,19.99,8.47,29.74,4.86,.47-.17,.94-.36,1.39-.55,0,0,0,0,0,0,.53,.81,1.12,1.6,1.78,2.34,1.02,1.14,2.14,2.13,3.35,2.96,7.07,4.91,16.84,4.53,23.55-1.46,.83-.74,1.58-1.53,2.24-2.37,1.48-1.85,2.56-3.93,3.24-6.11,.27,.98,.58,1.95,.95,2.92,.7,1.86,1.58,3.69,2.66,5.46,9.31,15.25,29.24,20.06,44.52,10.73,2.37-1.44,4.48-3.15,6.32-5.04,.93-.94,1.77-1.91,2.55-2.94,.56,.76,1.15,1.48,1.77,2.17,8.58,9.45,22.94,11.78,34.26,4.88,.34-.2,.66-.41,.99-.64,.99-.66,1.92-1.38,2.8-2.15,.1,.17,.2,.34,.3,.52,.65,1.06,1.35,2.07,2.11,3.02,9.42,11.95,26.52,15.24,39.86,7.09,7.76-4.73,12.66-12.37,14.16-20.66,.62,10.88-4.64,21.74-14.61,27.83Z"/>
      <path class="cls-8" d="M185.03,132.59c-.37-.97-.68-1.94-.95-2.92l.95,2.92Z"/>
      <path class="cls-8" d="M242.86,142.96c-.62-.69-1.22-1.41-1.77-2.17l1.77,2.17Z"/>
      <path class="cls-5" d="M219.5,44.39c15.84,0,28.68,13.25,28.68,29.59,0,.56-.02,1.12-.05,1.67,1.74-3.67,2.72-7.8,2.72-12.17,0-15.32-12.04-27.74-26.89-27.74-11.39,0-21.12,7.31-25.04,17.63,5.21-5.54,12.5-8.98,20.57-8.98Z"/>
      <path class="cls-5" d="M194.99,70.49c7.97,0,14.42,6.66,14.42,14.88,0,1.3-.16,2.55-.46,3.75,1.72-2.34,2.73-5.25,2.73-8.41,0-7.7-6.05-13.95-13.52-13.95-4.74,0-8.91,2.52-11.33,6.34,2.32-1.64,5.13-2.61,8.16-2.61Z"/>
      <path class="cls-5" d="M173.84,75.27c5.1,3.49,8.08,8.94,8.69,14.73,4.37-8.74,1.93-19.44-6.12-24.95-8.81-6.04-21.01-3.57-27.24,5.53-1.98,2.89-3.12,6.11-3.47,9.35,6.87-8.67,19.15-10.81,28.14-4.65Z"/>
    </g>
    <g>
      <path class="cls-7" d="M211.65,194.91l-3.58-6.21-4.07-7.07-4.09,7.06-3.64,6.28c-1.19,1.6-1.9,3.58-1.9,5.73,0,5.3,4.3,9.61,9.61,9.61s9.61-4.3,9.61-9.61c0-2.17-.72-4.18-1.94-5.79Z"/>
      <path class="cls-7" d="M211.65,256.91l-3.58-6.21-4.07-7.07-4.09,7.06-3.64,6.28c-1.19,1.6-1.9,3.58-1.9,5.73,0,5.3,4.3,9.61,9.61,9.61s9.61-4.3,9.61-9.61c0-2.17-.72-4.18-1.94-5.79Z"/>
      <path class="cls-7" d="M211.65,318.91l-3.58-6.21-4.07-7.07-4.09,7.06-3.64,6.28c-1.19,1.6-1.9,3.58-1.9,5.73,0,5.3,4.3,9.61,9.61,9.61s9.61-4.3,9.61-9.61c0-2.17-.72-4.18-1.94-5.79Z"/>
      <path class="cls-7" d="M211.65,380.91l-3.58-6.21-4.07-7.07-4.09,7.06-3.64,6.28c-1.19,1.6-1.9,3.58-1.9,5.73,0,5.3,4.3,9.61,9.61,9.61s9.61-4.3,9.61-9.61c0-2.17-.72-4.18-1.94-5.79Z"/>
    </g>
    <g>
      <path class="cls-7" d="M313.65,194.91l-3.58-6.21-4.07-7.07-4.09,7.06-3.64,6.28c-1.19,1.6-1.9,3.58-1.9,5.73,0,5.3,4.3,9.61,9.61,9.61s9.61-4.3,9.61-9.61c0-2.17-.72-4.18-1.94-5.79Z"/>
      <path class="cls-7" d="M313.65,256.91l-3.58-6.21-4.07-7.07-4.09,7.06-3.64,6.28c-1.19,1.6-1.9,3.58-1.9,5.73,0,5.3,4.3,9.61,9.61,9.61s9.61-4.3,9.61-9.61c0-2.17-.72-4.18-1.94-5.79Z"/>
      <path class="cls-7" d="M313.65,318.91l-3.58-6.21-4.07-7.07-4.09,7.06-3.64,6.28c-1.19,1.6-1.9,3.58-1.9,5.73,0,5.3,4.3,9.61,9.61,9.61s9.61-4.3,9.61-9.61c0-2.17-.72-4.18-1.94-5.79Z"/>
      <path class="cls-7" d="M313.65,380.91l-3.58-6.21-4.07-7.07-4.09,7.06-3.64,6.28c-1.19,1.6-1.9,3.58-1.9,5.73,0,5.3,4.3,9.61,9.61,9.61s9.61-4.3,9.61-9.61c0-2.17-.72-4.18-1.94-5.79Z"/>
    </g>
    <g>
      <path class="cls-7" d="M263.65,177.91l-3.58-6.21-4.07-7.07-4.09,7.06-3.64,6.28c-1.19,1.6-1.9,3.58-1.9,5.73,0,5.3,4.3,9.61,9.61,9.61s9.61-4.3,9.61-9.61c0-2.17-.72-4.18-1.94-5.79Z"/>
      <path class="cls-7" d="M263.65,239.91l-3.58-6.21-4.07-7.07-4.09,7.06-3.64,6.28c-1.19,1.6-1.9,3.58-1.9,5.73,0,5.3,4.3,9.61,9.61,9.61s9.61-4.3,9.61-9.61c0-2.17-.72-4.18-1.94-5.79Z"/>
      <path class="cls-7" d="M263.65,301.91l-3.58-6.21-4.07-7.07-4.09,7.06-3.64,6.28c-1.19,1.6-1.9,3.58-1.9,5.73,0,5.3,4.3,9.61,9.61,9.61s9.61-4.3,9.61-9.61c0-2.17-.72-4.18-1.94-5.79Z"/>
      <path class="cls-7" d="M263.65,363.91l-3.58-6.21-4.07-7.07-4.09,7.06-3.64,6.28c-1.19,1.6-1.9,3.58-1.9,5.73,0,5.3,4.3,9.61,9.61,9.61s9.61-4.3,9.61-9.61c0-2.17-.72-4.18-1.94-5.79Z"/>
    </g>
    <path class="cls-7" d="M158.65,175.91l-3.58-6.21-4.07-7.07-4.09,7.06-3.64,6.28c-1.19,1.6-1.9,3.58-1.9,5.73,0,5.3,4.3,9.61,9.61,9.61s9.61-4.3,9.61-9.61c0-2.17-.72-4.18-1.94-5.79Z"/>
    <path class="cls-7" d="M158.65,299.91l-3.58-6.21-4.07-7.07-4.09,7.06-3.64,6.28c-1.19,1.6-1.9,3.58-1.9,5.73,0,5.3,4.3,9.61,9.61,9.61s9.61-4.3,9.61-9.61c0-2.17-.72-4.18-1.94-5.79Z"/>
    <path class="cls-7" d="M158.65,361.91l-3.58-6.21-4.07-7.07-4.09,7.06-3.64,6.28c-1.19,1.6-1.9,3.58-1.9,5.73,0,5.3,4.3,9.61,9.61,9.61s9.61-4.3,9.61-9.61c0-2.17-.72-4.18-1.94-5.79Z"/>
    <g>
      <path class="cls-1" d="M41.36,436.38c-10.42-7.11-71.07-185.73,63.01-254.43,7.11-3.32,29.38-6.16,29.38-6.16,0,0,6.63,2.37,1.42,7.11-1.9,1.9-128.25,91.64-58.28,251.59,3.32,7.58-25.11,9-35.53,1.9Z"/>
      <path class="cls-2" d="M35.8,148.85s44.74-44.18,81.09,1.68c.56,.56,12.3-37.47-21.25-46.41-2.24-1.12-6.71-1.12-1.68-3.91,1.12-.56,36.96-15.15,51.45,23.49,3.36,8.95,5.03,25.16-7.27,44.18-.56,.56-2.24,2.24,2.24,1.12,1.12-.56,32.43-6.15,55.36,23.49,1.68,3.36,12.86,20.13,2.24,57.6-.56,2.24-3.36,11.74-6.15,0-.56-1.12-1.68-26.84-19.01-46.41-2.8-3.91-20.13-17.34-34.11-16.78-1.12-.56,52.01,57.04-2.24,100.66-1.12,.56-12.86,11.74-8.95,0,.56-1.12,13.42-73.82-8.95-88.91-1.68-2.24-16.22-17.89-16.22-17.89,0,0-10.44-27.41-34.67-30.76-16.22-2.24-27.4-.56-27.4-.56,0,0-7.83,2.24-4.47-.56Z"/>
      <path class="cls-3" d="M86.85,192.38s-6,23.98,12.32,26.06"/>
      <path class="cls-3" d="M63.16,212.28s-2.45,27.56,17.06,35.53"/>
      <path class="cls-3" d="M40.41,242.6s3.87,32.46,28.71,28.31"/>
      <path class="cls-3" d="M26.2,277.19s5.16,35.94,32.69,28.9"/>
      <path class="cls-3" d="M19.09,317.93s6.36,24.61,36.82,20.36"/>
      <path class="cls-3" d="M20.04,358.21c.49,.81,13.42,23.89,37.98,13.13"/>
      <path class="cls-3" d="M26.67,397.53s13.74,16.37,39.09,5.82"/>
    </g>
    <path class="cls-7" d="M158.65,237.91l-3.58-6.21-4.07-7.07-4.09,7.06-3.64,6.28c-1.19,1.6-1.9,3.58-1.9,5.73,0,5.3,4.3,9.61,9.61,9.61s9.61-4.3,9.61-9.61c0-2.17-.72-4.18-1.94-5.79Z"/>
  </g>
  <g id="Color_Screen" data-name="Color Screen">
    <rect class="cls-9" x="-.5" y="-1" width="376" height="533"/>
  </g>
</svg>