<?xml version="1.0" encoding="UTF-8"?>
<svg xmlns="http://www.w3.org/2000/svg" viewBox="0 0 375 532">
  <defs>
    <style>
      .cls-1 {
        stroke-width: 5px;
      }

      .cls-1, .cls-2 {
        fill: #67a3ab;
      }

      .cls-1, .cls-3 {
        stroke: #b3d1d5;
        stroke-miterlimit: 10;
      }

      .cls-4 {
        fill: #e6f0f1;
      }

      .cls-5 {
        fill: #80b3b9;
      }

      .cls-6 {
        fill: #b3d1d5;
      }

      .cls-7 {
        fill: #4d949d;
      }

      .cls-3 {
        fill: none;
        stroke-width: 4px;
      }

      .cls-8 {
        fill: #e2f552;
        opacity: .3;
      }

      .cls-9 {
        fill: #015a66;
        opacity: .28;
      }
    </style>
  </defs>
  <g id="background">
    <rect class="cls-6" x="-.5" y="0" width="376.15" height="531.17"/>
  </g>
  <g id="Layer_2" data-name="Layer 2">
    <path class="cls-2" d="M375.5,532.07H-1.5v-88.44c0-31.58,377-31.58,377,0v88.44Z"/>
    <g>
      <path class="cls-1" d="M41.36,436.38c-10.42-7.11-71.07-185.73,63.01-254.43,7.11-3.32,29.38-6.16,29.38-6.16,0,0,6.63,2.37,1.42,7.11-1.9,1.9-128.25,91.64-58.28,251.59,3.32,7.58-25.11,9-35.53,1.9Z"/>
      <path class="cls-2" d="M35.8,148.85s44.74-44.18,81.09,1.68c.56,.56,12.3-37.47-21.25-46.41-2.24-1.12-6.71-1.12-1.68-3.91,1.12-.56,36.96-15.15,51.45,23.49,3.36,8.95,5.03,25.16-7.27,44.18-.56,.56-2.24,2.24,2.24,1.12,1.12-.56,32.43-6.15,55.36,23.49,1.68,3.36,12.86,20.13,2.24,57.6-.56,2.24-3.36,11.74-6.15,0-.56-1.12-1.68-26.84-19.01-46.41-2.8-3.91-20.13-17.34-34.11-16.78-1.12-.56,52.01,57.04-2.24,100.66-1.12,.56-12.86,11.74-8.95,0,.56-1.12,13.42-73.82-8.95-88.91-1.68-2.24-16.22-17.89-16.22-17.89,0,0-10.44-27.41-34.67-30.76-16.22-2.24-27.4-.56-27.4-.56,0,0-7.83,2.24-4.47-.56Z"/>
      <path class="cls-3" d="M86.85,192.38s-6,23.98,12.32,26.06"/>
      <path class="cls-3" d="M63.16,212.28s-2.45,27.56,17.06,35.53"/>
      <path class="cls-3" d="M40.41,242.6s3.87,32.46,28.71,28.31"/>
      <path class="cls-3" d="M26.2,277.19s5.16,35.94,32.69,28.9"/>
      <path class="cls-3" d="M19.09,317.93s6.36,24.61,36.82,20.36"/>
      <path class="cls-3" d="M20.04,358.21c.49,.81,13.42,23.89,37.98,13.13"/>
      <path class="cls-3" d="M26.67,397.53s13.74,16.37,39.09,5.82"/>
    </g>
    <circle class="cls-4" cx="247.35" cy="78.2" r="37.91"/>
    <g>
      <path class="cls-5" d="M163.38,122.95c0,14.22,11.52,25.74,25.74,25.74,3.27,0,6.39-.61,9.26-1.72,2.85,3.05,6.91,4.97,11.41,4.97,4.88,0,9.24-2.24,12.1-5.75,3.44,10.18,13.05,17.5,24.39,17.5,9.1,0,17.1-4.73,21.68-11.87,4.46,4.77,10.71,7.74,17.65,7.74,4.84,0,9.35-1.45,13.15-3.95,4.32,7.23,12.06,12.06,20.9,12.06,13.55,0,24.53-11.33,24.53-25.3,0-3.27-.61-6.39-1.7-9.25,1.94,.63,4.01,.98,6.16,.98,10.97,0,19.86-8.89,19.86-19.86s-8.89-19.86-19.86-19.86c-.08,0-.16,0-.23,0-.63-13.65-11.9-24.53-25.71-24.53-3.48,0-6.79,.69-9.82,1.95-1.07-13.23-12.14-23.63-25.65-23.63-11.62,0-21.44,7.7-24.64,18.27-2.65-1.32-5.64-2.06-8.81-2.06-10.97,0-19.86,8.89-19.86,19.86,0,1.38,.14,2.73,.41,4.03-4.78,1.08-8.74,4.35-10.74,8.71-1.18-7.45-7.63-13.14-15.41-13.14s-14.51,5.94-15.48,13.63c-1.17-.16-2.36-.25-3.57-.25-14.22,0-25.74,11.52-25.74,25.74Zm89.61-16.02c0,.18,.02,.36,.03,.54-.05,0-.11,.01-.16,.02,.05-.19,.09-.37,.13-.56Z"/>
      <path class="cls-6" d="M286.92,58.06c12.53,0,22.89,9.56,24.62,21.99,.49-2.02,.76-4.12,.76-6.3,0-14.18-11.14-25.67-24.88-25.67s-24.88,11.49-24.88,25.67c0,1.25,.09,2.48,.26,3.68,2.72-11.13,12.49-19.37,24.12-19.37Z"/>
      <path class="cls-6" d="M314.31,71.16c-7.66,2.67-13.15,8.83-15.4,16.18,2.86-4.14,6.96-7.43,12.02-9.19,12.98-4.52,27.28,2.67,31.94,16.05,1.91,5.48,1.9,11.15,.34,16.24,4.47-6.48,5.88-15.06,3.03-23.23-4.66-13.39-18.96-20.57-31.94-16.05Z"/>
      <path class="cls-6" d="M335.19,110.94c4.53-9.12,15.57-12.84,24.67-8.32,3.72,1.85,6.54,4.8,8.27,8.26-.89-5.7-4.43-10.89-9.98-13.65-9.1-4.52-20.14-.79-24.67,8.32-2.67,5.38-2.48,11.44,0,16.43-.57-3.64-.06-7.49,1.71-11.04Z"/>
      <path class="cls-6" d="M174.61,108.45c11.48-7,26.45-3.39,33.44,8.06,2.86,4.69,3.94,9.97,3.43,15.05,3.01-7,2.71-15.29-1.55-22.28-6.99-11.46-21.96-15.06-33.44-8.06-6.78,4.14-10.82,11.05-11.56,18.38,1.93-4.47,5.2-8.41,9.68-11.14Z"/>
      <path class="cls-6" d="M260.06,85.26c8.57-5.23,19.74-2.53,24.96,6.02,2.14,3.5,2.94,7.44,2.56,11.23,2.25-5.22,2.03-11.41-1.16-16.63-5.22-8.55-16.39-11.25-24.96-6.02-5.06,3.09-8.08,8.25-8.63,13.72,1.44-3.34,3.88-6.28,7.23-8.32Z"/>
      <path class="cls-6" d="M286.77,100.39c6.26-3.82,14.42-1.85,18.24,4.4,1.46,2.39,2.07,5.07,1.91,7.67,2.12-4,2.13-8.97-.39-13.11-3.81-6.25-11.98-8.22-18.24-4.4-3.86,2.36-6.09,6.37-6.34,10.56,1.08-2.04,2.71-3.83,4.82-5.12Z"/>
      <path class="cls-7" d="M332.47,164.03c-11.3,6.89-26.03,3.34-32.91-7.94-.16-.26-.31-.52-.46-.79-.84,.71-1.74,1.36-2.71,1.95-9.5,5.8-21.74,3.29-28.22-5.47-2.05,3.47-4.96,6.51-8.65,8.76-11.98,7.31-27.61,3.55-34.91-8.42-1.21-1.98-2.11-4.07-2.72-6.2-.59,.79-1.27,1.54-2.03,2.22-6.16,5.5-15.6,4.97-21.09-1.18,0,0-.02-.02-.03-.03-7.93,3.49-17.47,2.54-24.65-3.27-4.72-3.82-7.6-9.08-8.51-14.65,1.47,3.5,3.8,6.7,6.96,9.25,6.79,5.49,15.68,6.64,23.32,3.81,.37-.13,.73-.28,1.09-.43,0,0,0,0,0,0,.41,.64,.88,1.25,1.4,1.84,.8,.89,1.68,1.67,2.63,2.32,5.54,3.85,13.21,3.55,18.47-1.15,.65-.58,1.24-1.2,1.76-1.86,1.16-1.45,2.01-3.08,2.54-4.79,.21,.77,.45,1.53,.74,2.29,.55,1.46,1.24,2.89,2.09,4.28,7.3,11.96,22.93,15.73,34.91,8.42,1.86-1.13,3.52-2.47,4.96-3.96,.73-.73,1.39-1.5,2-2.3,.44,.6,.9,1.16,1.39,1.7,6.73,7.41,17.99,9.24,26.87,3.83,.26-.16,.52-.32,.77-.5,.78-.52,1.51-1.08,2.19-1.69,.07,.13,.15,.27,.23,.4,.51,.83,1.06,1.62,1.65,2.37,7.38,9.37,20.79,11.95,31.26,5.56,6.09-3.71,9.93-9.7,11.1-16.2,.48,8.53-3.64,17.05-11.45,21.82Z"/>
      <path class="cls-8" d="M224.49,140.29c-.29-.76-.53-1.52-.74-2.29l.74,2.29Z"/>
      <path class="cls-8" d="M269.84,148.43c-.49-.54-.95-1.1-1.39-1.7l1.39,1.7Z"/>
      <path class="cls-6" d="M251.52,71.13c12.42,0,22.49,10.39,22.49,23.2,0,.44-.01,.88-.04,1.31,1.37-2.88,2.13-6.12,2.13-9.54,0-12.01-9.44-21.75-21.09-21.75-8.93,0-16.56,5.73-19.64,13.83,4.09-4.34,9.8-7.04,16.13-7.04Z"/>
      <path class="cls-6" d="M232.3,91.6c6.25,0,11.31,5.22,11.31,11.67,0,1.02-.13,2-.36,2.94,1.35-1.83,2.14-4.12,2.14-6.59,0-6.04-4.75-10.94-10.6-10.94-3.72,0-6.99,1.98-8.88,4.97,1.82-1.29,4.02-2.05,6.4-2.05Z"/>
      <path class="cls-6" d="M215.72,95.35c4,2.74,6.34,7.01,6.82,11.55,3.43-6.85,1.51-15.24-4.8-19.57-6.91-4.74-16.48-2.8-21.36,4.33-1.56,2.27-2.45,4.79-2.72,7.33,5.39-6.8,15.02-8.48,22.06-3.65Z"/>
    </g>
  </g>
  <g id="Color_Screen" data-name="Color Screen">
    <rect class="cls-9" x="-.5" y="0" width="376" height="532"/>
  </g>
</svg>